<svg width="30" height="28" viewBox="0 0 30 28" fill="none" xmlns="http://www.w3.org/2000/svg">
<path d="M29.0797 16.6598L13.8613 1.517L13.6314 1.74268C12.485 0.621053 10.968 0.00169687 9.35313 0C9.35313 0 9.35313 0 9.35141 0C7.72455 0 6.19208 0.627841 5.04058 1.76644C3.88736 2.90504 3.2524 4.41864 3.2524 6.03236C3.2524 7.62911 3.8805 9.12914 5.01484 10.2627L1.22569 14.011C0.705717 14.5269 0.419128 15.209 0.419128 15.9336C0.419128 16.6615 0.704001 17.342 1.22055 17.851L9.47669 26.0961C9.99495 26.6086 10.6848 26.8919 11.4176 26.8919C12.1538 26.8919 12.8437 26.6069 13.3619 26.0927L22.9 16.6615L29.0797 16.6598ZM4.9685 6.03066C4.9685 4.8734 5.42498 3.78571 6.25386 2.96612C7.08273 2.14823 8.18104 1.69687 9.35141 1.69687C9.35313 1.69687 9.35313 1.69687 9.35313 1.69687C10.5098 1.69687 11.5944 2.14145 12.4181 2.94237L6.22983 9.06297C5.41812 8.24677 4.9685 7.17435 4.9685 6.03066ZM12.1452 24.8947C11.9513 25.0865 11.6905 25.1951 11.4159 25.1951C11.1413 25.1951 10.8822 25.0899 10.6917 24.8998L4.45196 18.6655H18.445L12.1452 24.8947ZM20.1611 16.9687H2.7513L2.43726 16.6531C2.24162 16.4613 2.13523 16.2068 2.13523 15.9353C2.13523 15.6621 2.24334 15.4059 2.43897 15.2107L13.8579 3.91976L24.9576 14.9647L22.1878 14.9664L20.1611 16.9687ZM27.3413 20.2928L26.6428 19.2679L25.9255 20.2826C25.378 21.0581 23.5864 23.695 23.5864 25.0305C23.5864 26.668 24.9336 28 26.5896 28C28.2456 28 29.5928 26.6663 29.5928 25.0288C29.5928 23.7018 27.8698 21.0683 27.3413 20.2928ZM26.5896 26.3014C25.8809 26.3014 25.3025 25.7296 25.3025 25.0288C25.3025 24.6215 25.9015 23.4677 26.6171 22.3291C27.3035 23.466 27.8767 24.6181 27.8767 25.0288C27.8767 25.7296 27.2984 26.3014 26.5896 26.3014Z" fill="#181818"/>
</svg>
