<?xml version="1.0" standalone="no"?>
<!DOCTYPE svg PUBLIC "-//W3C//DTD SVG 20010904//EN"
 "http://www.w3.org/TR/2001/REC-SVG-20010904/DTD/svg10.dtd">
<svg version="1.0" xmlns="http://www.w3.org/2000/svg"
 width="140" height="137" viewBox="0 0 50.000000 51.000000"
 preserveAspectRatio="xMidYMid meet">
<g transform="translate(0.000000,51.000000) scale(0.100000,-0.100000)"
fill="red" stroke="none">
<path d="M225 444 c-23 -43 -141 -156 -183 -175 l-30 -13 36 -17 c40 -18 147
-124 177 -177 11 -17 22 -32 25 -32 3 0 14 16 25 36 23 43 141 156 183 175
l30 13 -36 17 c-40 18 -147 124 -177 177 -11 17 -22 32 -25 32 -3 0 -14 -16
-25 -36z"/>
</g>
</svg>
