<?xml version="1.0" standalone="no"?>
<!DOCTYPE svg PUBLIC "-//W3C//DTD SVG 20010904//EN"
 "http://www.w3.org/TR/2001/REC-SVG-20010904/DTD/svg10.dtd">
<svg version="1.0" xmlns="http://www.w3.org/2000/svg"
 width="140" height="137" viewBox="0 0 50.000000 51.000000"
 preserveAspectRatio="xMidYMid meet">
<g transform="translate(0.000000,51.000000) scale(0.100000,-0.100000)"
fill="black" stroke="none">
<path d="M186 491 c-60 -40 -72 -103 -31 -163 l25 -37 -31 11 c-46 16 -105 -5
-129 -45 -31 -50 -26 -93 14 -133 28 -28 41 -34 78 -34 25 0 56 8 74 19 l32
19 -10 -36 c-6 -20 -17 -49 -24 -64 l-15 -28 81 0 81 0 -15 27 c-7 16 -18 45
-24 65 l-10 36 32 -19 c18 -11 49 -19 74 -19 37 0 50 6 78 34 40 40 45 83 14
133 -24 40 -83 61 -129 45 l-31 -11 25 37 c43 63 26 135 -39 166 -45 21 -84
20 -120 -3z"/>
</g>
</svg>
