<?xml version="1.0" standalone="no"?>
<!DOCTYPE svg PUBLIC "-//W3C//DTD SVG 20010904//EN"
 "http://www.w3.org/TR/2001/REC-SVG-20010904/DTD/svg10.dtd">
<svg version="1.0" xmlns="http://www.w3.org/2000/svg"
 width="140" height="137" viewBox="0 0 60.000000 71.000000"
 preserveAspectRatio="xMidYMid meet">

<g transform="translate(0.000000,71.000000) scale(0.100000,-0.100000)"
fill="#000000" stroke="none">
<path d="M257 626 c-25 -33 -78 -97 -118 -141 -72 -80 -119 -160 -119 -203 0
-35 25 -88 51 -106 52 -36 121 -40 193 -11 17 7 18 5 12 -21 -4 -16 -21 -50
-37 -76 l-29 -48 95 0 95 0 -37 69 c-21 38 -35 72 -32 75 3 4 18 2 33 -4 39
-14 102 -12 136 5 63 32 90 98 70 169 -12 45 -28 66 -176 244 l-91 109 -46
-61z"/>
</g>
</svg>
